<svg width="16" height="16" viewBox="0 0 16 16" fill="none" xmlns="http://www.w3.org/2000/svg">
<path d="M4.99984 5.00017V1.16667C4.99984 0.890529 5.22369 0.666672 5.49984 0.666672C5.77598 0.666672 5.99984 0.890529 5.99984 1.16667V5.00017C5.99984 5.18426 6.14908 5.3335 6.33317 5.3335C6.51727 5.3335 6.6665 5.18426 6.6665 5.00017V1.66667C6.6665 1.39053 6.89036 1.16667 7.1665 1.16667C7.44265 1.16667 7.6665 1.39053 7.6665 1.66667V5.50001C7.6665 5.51415 7.66592 5.52815 7.66476 5.542C7.95292 5.43312 8.31376 5.3308 8.6665 5.3308C8.99973 5.3308 9.28472 5.41403 9.49599 5.52043C9.60028 5.57296 9.69729 5.63652 9.77654 5.7086C9.81549 5.74403 9.86045 5.79083 9.89954 5.84899C9.93027 5.8947 9.99984 6.00874 9.99984 6.16667C9.99984 6.33907 9.91103 6.4993 9.76484 6.59067L8.49394 7.38498L7.38872 8.64564L6.47053 9.91038C6.12561 10.3855 5.57403 10.6666 4.98694 10.6666H4.22793C3.60727 10.6666 3.01217 10.3514 2.69133 9.79257C2.4899 9.44174 2.24053 8.98076 2.04005 8.52452C1.84932 8.09048 1.6665 7.58261 1.6665 7.16664V2.50001C1.6665 2.22386 1.89036 2.00001 2.1665 2.00001C2.44265 2.00001 2.6665 2.22386 2.6665 2.50001V5.33196C2.6665 5.51605 2.81574 5.66529 2.99984 5.66529C3.18393 5.66529 3.33317 5.51605 3.33317 5.33196V1.66667C3.33317 1.39053 3.55703 1.16667 3.83317 1.16667C4.10931 1.16667 4.33317 1.39053 4.33317 1.66667V5.00017C4.33317 5.18426 4.48241 5.3335 4.6665 5.3335C4.8506 5.3335 4.99984 5.18426 4.99984 5.00017ZM9.99978 14.6667C7.86557 14.6667 6.06597 13.234 5.51025 11.278C6.10747 11.1501 6.64401 10.8061 7.00996 10.3021L7.91015 9.06211L8.93046 7.8983L10.1181 7.15602C10.4592 6.94282 10.6664 6.56894 10.6664 6.16669C10.6664 5.81248 10.5112 5.56406 10.4528 5.47709C10.4201 5.42851 10.3862 5.38501 10.353 5.34652C12.7653 5.52706 14.6664 7.54152 14.6664 10C14.6664 12.5773 12.5771 14.6667 9.99978 14.6667ZM11.9998 9.33335C11.9998 8.96516 11.7013 8.66669 11.3331 8.66669C10.9649 8.66669 10.6664 8.96516 10.6664 9.33335C10.6664 9.70154 10.9649 10 11.3331 10C11.7013 10 11.9998 9.70154 11.9998 9.33335ZM8.09131 11.1415C7.89229 11.3329 7.88615 11.6494 8.07758 11.8484C8.56213 12.3522 9.2446 12.6667 9.99965 12.6667C10.7547 12.6667 11.4372 12.3522 11.9217 11.8484C12.1132 11.6494 12.107 11.3329 11.908 11.1415C11.709 10.95 11.3924 10.9562 11.201 11.1552C10.8972 11.4711 10.4717 11.6667 9.99965 11.6667C9.52762 11.6667 9.10213 11.4711 8.79829 11.1552C8.60685 10.9562 8.29033 10.95 8.09131 11.1415ZM9.33311 9.33335C9.33311 8.96516 9.03464 8.66669 8.66645 8.66669C8.29826 8.66669 7.99978 8.96516 7.99978 9.33335C7.99978 9.70154 8.29826 10 8.66645 10C9.03464 10 9.33311 9.70154 9.33311 9.33335Z" fill="#83A588"/>
<path d="M4.99984 5.00017V1.16667C4.99984 0.890529 5.22369 0.666672 5.49984 0.666672C5.77598 0.666672 5.99984 0.890529 5.99984 1.16667V5.00017C5.99984 5.18426 6.14908 5.3335 6.33317 5.3335C6.51727 5.3335 6.6665 5.18426 6.6665 5.00017V1.66667C6.6665 1.39053 6.89036 1.16667 7.1665 1.16667C7.44265 1.16667 7.6665 1.39053 7.6665 1.66667V5.50001C7.6665 5.51415 7.66592 5.52815 7.66476 5.542C7.95292 5.43312 8.31376 5.3308 8.6665 5.3308C8.99973 5.3308 9.28472 5.41403 9.49599 5.52043C9.60028 5.57296 9.69729 5.63652 9.77654 5.7086C9.81549 5.74403 9.86045 5.79083 9.89954 5.84899C9.93027 5.8947 9.99984 6.00874 9.99984 6.16667C9.99984 6.33907 9.91103 6.4993 9.76484 6.59067L8.49394 7.38498L7.38872 8.64564L6.47053 9.91038C6.12561 10.3855 5.57403 10.6666 4.98694 10.6666H4.22793C3.60727 10.6666 3.01217 10.3514 2.69133 9.79257C2.4899 9.44174 2.24053 8.98076 2.04005 8.52452C1.84932 8.09048 1.6665 7.58261 1.6665 7.16664V2.50001C1.6665 2.22386 1.89036 2.00001 2.1665 2.00001C2.44265 2.00001 2.6665 2.22386 2.6665 2.50001V5.33196C2.6665 5.51605 2.81574 5.66529 2.99984 5.66529C3.18393 5.66529 3.33317 5.51605 3.33317 5.33196V1.66667C3.33317 1.39053 3.55703 1.16667 3.83317 1.16667C4.10931 1.16667 4.33317 1.39053 4.33317 1.66667V5.00017C4.33317 5.18426 4.48241 5.3335 4.6665 5.3335C4.8506 5.3335 4.99984 5.18426 4.99984 5.00017ZM9.99978 14.6667C7.86557 14.6667 6.06597 13.234 5.51025 11.278C6.10747 11.1501 6.64401 10.8061 7.00996 10.3021L7.91015 9.06211L8.93046 7.8983L10.1181 7.15602C10.4592 6.94282 10.6664 6.56894 10.6664 6.16669C10.6664 5.81248 10.5112 5.56406 10.4528 5.47709C10.4201 5.42851 10.3862 5.38501 10.353 5.34652C12.7653 5.52706 14.6664 7.54152 14.6664 10C14.6664 12.5773 12.5771 14.6667 9.99978 14.6667ZM11.9998 9.33335C11.9998 8.96516 11.7013 8.66669 11.3331 8.66669C10.9649 8.66669 10.6664 8.96516 10.6664 9.33335C10.6664 9.70154 10.9649 10 11.3331 10C11.7013 10 11.9998 9.70154 11.9998 9.33335ZM8.09131 11.1415C7.89229 11.3329 7.88615 11.6494 8.07758 11.8484C8.56213 12.3522 9.2446 12.6667 9.99965 12.6667C10.7547 12.6667 11.4372 12.3522 11.9217 11.8484C12.1132 11.6494 12.107 11.3329 11.908 11.1415C11.709 10.95 11.3924 10.9562 11.201 11.1552C10.8972 11.4711 10.4717 11.6667 9.99965 11.6667C9.52762 11.6667 9.10213 11.4711 8.79829 11.1552C8.60685 10.9562 8.29033 10.95 8.09131 11.1415ZM9.33311 9.33335C9.33311 8.96516 9.03464 8.66669 8.66645 8.66669C8.29826 8.66669 7.99978 8.96516 7.99978 9.33335C7.99978 9.70154 8.29826 10 8.66645 10C9.03464 10 9.33311 9.70154 9.33311 9.33335Z" fill="black" fill-opacity="0.7" style="mix-blend-mode:hue"/>
<path d="M4.99984 5.00017V1.16667C4.99984 0.890529 5.22369 0.666672 5.49984 0.666672C5.77598 0.666672 5.99984 0.890529 5.99984 1.16667V5.00017C5.99984 5.18426 6.14908 5.3335 6.33317 5.3335C6.51727 5.3335 6.6665 5.18426 6.6665 5.00017V1.66667C6.6665 1.39053 6.89036 1.16667 7.1665 1.16667C7.44265 1.16667 7.6665 1.39053 7.6665 1.66667V5.50001C7.6665 5.51415 7.66592 5.52815 7.66476 5.542C7.95292 5.43312 8.31376 5.3308 8.6665 5.3308C8.99973 5.3308 9.28472 5.41403 9.49599 5.52043C9.60028 5.57296 9.69729 5.63652 9.77654 5.7086C9.81549 5.74403 9.86045 5.79083 9.89954 5.84899C9.93027 5.8947 9.99984 6.00874 9.99984 6.16667C9.99984 6.33907 9.91103 6.4993 9.76484 6.59067L8.49394 7.38498L7.38872 8.64564L6.47053 9.91038C6.12561 10.3855 5.57403 10.6666 4.98694 10.6666H4.22793C3.60727 10.6666 3.01217 10.3514 2.69133 9.79257C2.4899 9.44174 2.24053 8.98076 2.04005 8.52452C1.84932 8.09048 1.6665 7.58261 1.6665 7.16664V2.50001C1.6665 2.22386 1.89036 2.00001 2.1665 2.00001C2.44265 2.00001 2.6665 2.22386 2.6665 2.50001V5.33196C2.6665 5.51605 2.81574 5.66529 2.99984 5.66529C3.18393 5.66529 3.33317 5.51605 3.33317 5.33196V1.66667C3.33317 1.39053 3.55703 1.16667 3.83317 1.16667C4.10931 1.16667 4.33317 1.39053 4.33317 1.66667V5.00017C4.33317 5.18426 4.48241 5.3335 4.6665 5.3335C4.8506 5.3335 4.99984 5.18426 4.99984 5.00017ZM9.99978 14.6667C7.86557 14.6667 6.06597 13.234 5.51025 11.278C6.10747 11.1501 6.64401 10.8061 7.00996 10.3021L7.91015 9.06211L8.93046 7.8983L10.1181 7.15602C10.4592 6.94282 10.6664 6.56894 10.6664 6.16669C10.6664 5.81248 10.5112 5.56406 10.4528 5.47709C10.4201 5.42851 10.3862 5.38501 10.353 5.34652C12.7653 5.52706 14.6664 7.54152 14.6664 10C14.6664 12.5773 12.5771 14.6667 9.99978 14.6667ZM11.9998 9.33335C11.9998 8.96516 11.7013 8.66669 11.3331 8.66669C10.9649 8.66669 10.6664 8.96516 10.6664 9.33335C10.6664 9.70154 10.9649 10 11.3331 10C11.7013 10 11.9998 9.70154 11.9998 9.33335ZM8.09131 11.1415C7.89229 11.3329 7.88615 11.6494 8.07758 11.8484C8.56213 12.3522 9.2446 12.6667 9.99965 12.6667C10.7547 12.6667 11.4372 12.3522 11.9217 11.8484C12.1132 11.6494 12.107 11.3329 11.908 11.1415C11.709 10.95 11.3924 10.9562 11.201 11.1552C10.8972 11.4711 10.4717 11.6667 9.99965 11.6667C9.52762 11.6667 9.10213 11.4711 8.79829 11.1552C8.60685 10.9562 8.29033 10.95 8.09131 11.1415ZM9.33311 9.33335C9.33311 8.96516 9.03464 8.66669 8.66645 8.66669C8.29826 8.66669 7.99978 8.96516 7.99978 9.33335C7.99978 9.70154 8.29826 10 8.66645 10C9.03464 10 9.33311 9.70154 9.33311 9.33335Z" fill="white" fill-opacity="0.16"/>
</svg>
